<mxfile host="app.diagrams.net" modified="2023-05-03T12:37:51.191Z" agent="Mozilla/5.0 (Windows NT 10.0; Win64; x64) AppleWebKit/537.36 (KHTML, like Gecko) Chrome/97.0.4692.71 Safari/537.36" version="21.1.5" etag="fv0-HbsdKYh3c13DFuFj" type="github">
  <diagram name="第 1 页" id="T0lpp3rCeEHcIjYK-Mc4">
    <mxGraphModel>
      <root>
        <mxCell id="0" />
        <mxCell id="1" parent="0" />
      </root>
    </mxGraphModel>
  </diagram>
</mxfile>
